<?xml version="1.0" encoding="utf-8"?>
<!-- Generator: Adobe Illustrator 22.0.1, SVG Export Plug-In . SVG Version: 6.00 Build 0)  -->
<svg version="1.1" id="Слой_3" xmlns="http://www.w3.org/2000/svg" xmlns:xlink="http://www.w3.org/1999/xlink" x="0px" y="0px"
	 viewBox="0 0 512 512" style="enable-background:new 0 0 512 512;" xml:space="preserve">
<style type="text/css">
	.st0{fill:#67FD1F;}
	.st1{fill:#FBDF21;}
	.st2{fill:#6640CB;}
	.st3{fill:#FD621F;}
	.st4{fill:#FE1D25;}
	.st5{fill:#51D8E9;}
	.st6{fill:#2874BD;}
	.st7{fill:none;stroke:#F5FFDA;stroke-linecap:round;stroke-linejoin:round;stroke-miterlimit:10;}
	.st8{fill:#22E217;}
	.st9{fill:url(#SVGID_1_);}
	.st10{fill:url(#SVGID_2_);}
	.st11{fill:url(#SVGID_3_);}
	.st12{fill:url(#SVGID_4_);}
	.st13{fill:url(#SVGID_5_);}
	.st14{fill:url(#SVGID_6_);}
	.st15{fill:url(#SVGID_7_);}
	.st16{fill:url(#SVGID_8_);}
</style>
<path class="st0" d="M279.1,307.2c-2.4-2.3,0.3-10.3-1.3-13.2c-2-3.4-11.7-5.4-12.8-9.2c-3.1-11.2,49.5-72.1,60.7-80.5
	c8.7-6.5,28.3-16.2,37.8-21.5c13.5-7.6,40.6-22.3,54.1-29.9c9.5-5.4,27.8-17.6,37.8-22c3.1-1.3,10.1-1.9,12.8-4
	c2-1.6,2.8-9.3,5.3-8.8c2.4,0.5,0.8,7.3,1.3,9.7c0.9,3.8,4.7,11,4.8,14.9c0.3,12.1-8.8,35.2-12.8,46.6c-3.8,11-12.3,32.9-18,43.1
	c-4.6,8.1-16,22.8-22,29.9c-6.5,7.7-19.9,23.2-28.1,29c-6.1,4.4-20,10.7-27.3,12.8c-10.3,2.9-31.9,4.7-42.6,4.8
	C320.3,309.1,288.2,315.8,279.1,307.2z"/>
<path class="st1" d="M210.5,156.8c0.8-6.4,2.4-19.3,4.4-25.5c2.2-6.9,9.3-19.8,13.2-25.9c4.3-6.9,15-19.3,19.8-25.9
	c3-4.2,8.6-12.8,11.4-17.1c1.5-2.3,3.9-7.2,5.7-9.2c3.1-3.6,11-9.1,14.5-12.3c1.7-1.6,4.5-5.3,6.2-7c2.5-2.6,7.1-11.3,10.6-10.1
	c2.3,0.8,0.6,7.3,1.3,9.7c0.8,2.7,5.3,6.6,7,8.8c2.5,3.1,6.8,9.7,8.8,13.2c5.9,10.4,16.5,32.1,20.2,43.5c2.8,8.5,5.2,26.4,8.4,34.7
	c1.2,3.2,5,9.1,6.2,12.3c1.2,3.6,1.9,11.2,2.2,14.9c0.5,5.3,1.5,15.8,1.3,21.1c-0.2,5.8-3.1,22.9-3.1,22.9s-5.5,15.2-8.4,19.8
	c-2.8,4.4-10.2,11.9-13.6,15.8c-5.9,6.9-17.8,20.7-23.7,27.7c-5.6,6.7-18.1,21.7-26.8,22.4c-2.6,0.2-6.6-5-9.2-5.3
	c-2.7-0.2-7.6,4.3-10.1,3.5c-9.2-3-17.5-23.3-22.4-31.7c-8.4-14.1-26.3-42.7-29-58.9C203.6,187.9,209.3,167.2,210.5,156.8z"/>
<path class="st2" d="M110.1,484.2c-3.2-0.9-6.5-8-7.3-11.2c-1.1-4.8-0.8-14.9-1.3-19.8c-0.5-4.3,7.9-37.2,10.6-44.2
	c2.1-5.6,4.4-17.5,6.6-23.1c3-7.6,9.7-23,15.2-29c12.2-13.4,43.8-33,60.7-39.6c11.1-4.3,38.6-15.4,49.5-10.6
	c2.8,1.3,6.6,11.5,9.2,13.2c3.1,2,11.5,2.5,14.5,4.6c5.2,3.6,5.1,13.6,6.6,19.8c2.2,9.1,1.8,28.5-0.7,37.6
	c-3.5,13.3-18.7,36.8-26.4,48.1c-3.5,5.1-11.3,14.9-15.8,19.1c-4,3.8-13.5,9.8-17.8,13.2c-3.2,2.5-8.8,8.8-12.5,10.6
	c-11.5,5.4-37.6,6.4-50.1,8.6c-5.2,0.9-15.8,2.8-21.1,2.6c-3.7-0.1-10.9-3.4-14.5-2.6C113.9,481.9,111.5,484.6,110.1,484.2z"/>
<path class="st3" d="M257.6,290.1c4.4-6.4,1.9-20.3,2.5-25.8c0.5-4.2-1.6-17.9-1.6-22.1c-0.1-6.4-1.6-19.1-2.6-25.4
	c-1-6.2-3.1-18.8-5.3-24.7c-2.3-6.3-9.2-17.8-12.9-23.4c-3.5-5.4-10.5-16.4-15.5-20.4c-3.5-2.9-12.2-5.7-16.2-7.9
	c-4-2.3-11.8-7.1-15.5-9.9c-3.8-2.9-11.2-9.1-14.5-12.5c-4-4.2-10.8-13.7-15.2-17.5c-4.6-3.9-15.7-9.2-20.4-12.9
	c-4.2-3.2-11.6-10.8-16.2-13.5c-3-1.8-9.9-3.5-12.9-5.3c-1.9-1.1-5-6.7-6.9-5.6c-3.8,2.2,2.9,13.1,2.3,17.5
	c-0.4,2.9-3.7,7.8-4.6,10.6c-1.4,3.9-3.8,11.8-4.3,15.8c-0.8,6.3,0,19,0,25.4c0,6.3-0.5,19-0.3,25.4c0.1,5.6,1.2,16.8,1.3,22.4
	c0,2.6-0.6,7.7-0.3,10.2c0.5,4.3,3,12.8,4.6,16.8c1.4,3.5,4.9,10.3,6.9,13.5c3.9,6.4,11.9,19.4,17.5,24.4
	c15.8,14,55.6,30.5,74.2,40.6c6.3,3.4,18.4,11.9,25.4,13.5c2.6,0.6,12.2,5.3,15.9,3.6c2.4-1.1,3.7-7.1,5.7-8.8
	C250.6,292.5,256.2,292.1,257.6,290.1z"/>
<path class="st4" d="M245.3,315.1c-2.4,8.2-18.6,17.9-25.7,22.6c-6.5,4.4-25.1,18.5-25.1,18.5s-22.8,10.6-31,11.9
	c-9.5,1.4-28.9-0.4-38.3-2.6c-10.8-2.6-31.1-11.9-40.9-17.1c-9.8-5.2-28.7-17.1-36.9-24.4c-6.9-6.1-18.1-20.9-22.4-29
	c-2.1-3.9-3.3-13.5-6.6-16.5c-2.1-1.9-9.4-2.5-9.9-5.3c-0.3-1.7,8.1-12.1,9.9-13.9c6.9-6.5,25-13.4,33.6-17.1
	c8.9-3.8,27.5-9.7,36.9-11.9c6.5-1.5,19.8-2.7,26.4-2.6c9.5,0,28.5,3.1,37.6,5.9c7.2,2.3,20.5,10.1,27,13.9
	c8.2,4.7,24,15.4,31.7,21.1c5.2,3.9,29.5,16.4,33.2,26.4c1.1,2.8-2.4,8.9-2.2,11.9C242.8,309,245.9,313,245.3,315.1z"/>
<path class="st5" d="M263.3,322.2c-8.1,5.3-13.5,25.8-17.1,34.7c-1.9,4.6-4.7,14.2-6.2,18.9c-1.5,4.8-5,14.4-5.7,19.3
	c-1,6.9,0,21.1,2.2,27.7c1.2,3.7,8.2,19.1,9.2,20.7c1.9,3,11.8,13.2,14.5,15.4c5.4,4.3,11.6,7.3,17.1,11.4c4.6,3.4,14.7,9.3,20.2,11
	c4.9,1.5,19.3,1.8,20.7,0.9c1.3-0.9,10.8,0,14.1,1.3c2,0.8,5.1,5.8,7,4.8c1.9-0.9-0.5-6.5,0.4-8.4c2.6-5.3,13.7-11.1,17.6-15.4
	c3.2-3.5,9-11.1,11-15.4c2.4-5.3,4.3-17.1,5.3-22.9c0.9-5.8,3.1-17.5,2.2-23.3c-1-6.8-6.2-19.9-10.1-25.5
	c-6.6-9.4-25.1-23.5-34.3-30.3c-10.1-7.6-30.5-23.3-42.6-26.8c-1.8-0.5-9.4-5.1-11-5.3c-2.3-0.2-4.6,5.4-6.6,6.6
	C269.5,322.7,265,321.1,263.3,322.2z"/>
<path class="st6" d="M274,314.4c-0.4,4.4,11.2,7.6,13.9,11.2c2.3,3.1,3.7,11.1,5.6,14.5c3.8,6.7,13.6,18.7,19.1,24.1
	c4,3.9,12.5,11.6,17.8,13.5c7.9,2.8,25.2,1.6,33.6,1.3c9.2-0.4,27.8-1.5,36.6-4.3c12.7-4,36.3-16.9,47.5-24.1
	c8.5-5.4,23.7-18.8,31.7-25.1c3.3-2.6,10.6-6.9,13.2-10.2c2.7-3.5,4.5-12.5,6.9-16.2c0.7-1.1,3.9-2.4,3.6-3.6
	c-1.6-7.8-21.8-10.2-29.7-11.5c-6.6-1.1-20.1,2.2-26.7,1c-5.3-1-14.5-7.3-19.8-8.6c-6.2-1.5-19-1.7-25.4-1.3
	c-24.1,1.5-71.5,12.7-95,18.5c-6.2,1.5-20.4,2.3-24.4,7.3c-1.4,1.8,0.6,7.3-0.7,9.2C280.7,312,274.2,312.1,274,314.4z"/>
<path class="st7" d="M254.5,291.3c-26.7-35.9-23.4-77.5-28.7-86.4"/>
<path class="st7" d="M269.4,287c0-57.8,2.8-104.5,6.3-104.5"/>
<path class="st7" d="M273,289c23.7-23.1,56.1-32.3,69.3-74.5"/>
<path class="st7" d="M275.9,304.8c25.1,3,49.5-21.4,66-37.3"/>
<path class="st7" d="M272.3,318c3,12.2,7.6,5.6,13.5-1"/>
<path class="st7" d="M248.2,320c0,0.9-12.2,14.2-24.7-3"/>
<path class="st7" d="M244.6,303.2c-9.9-2-36.6-26.7-39.6-48.8"/>
<path class="st8" d="M244.3,316.8c0.9,3.9,4.9,8.2,12.9,10c8,1.8,22.5-6.6,25.2-11.8c3.1-6,1-18.4-2.8-23.9
	c-3.7-5.3-18.4-10-24.5-7.7c-5,1.9-12.5,14.1-13.9,19.3C240.2,306.3,243.4,313.1,244.3,316.8z"/>
<linearGradient id="SVGID_1_" gradientUnits="userSpaceOnUse" x1="247.7457" y1="270.4082" x2="310.9229" y2="233.9328">
	<stop  offset="0" style="stop-color:#F5FFAA"/>
	<stop  offset="0.5718" style="stop-color:#EFFEA5"/>
	<stop  offset="1" style="stop-color:#62DB21"/>
</linearGradient>
<path class="st9" d="M262.1,293.9c-7.4-7.1-1.1-9.7,3-19.1c4.1-9.4,21-44,22.8-54.1c0.2-1,1.4-5.7,2-6.6c0.8-1.3,4.4-2,5.9-1.6
	c1.7,0.4,5.1,2.9,5.3,4.6c0.2,1.6-4,5.6-4.3,4.6c-0.3-1-2.6,3.9-3.3,4.3c-8.5,4.9-21.7,45.8-24.7,55.1c-3.1,9.6,1.9,5.5-5.3,12.5
	C263.2,293.8,262.3,294.2,262.1,293.9z"/>
<radialGradient id="SVGID_2_" cx="204.2689" cy="247.6149" r="7.2532" gradientUnits="userSpaceOnUse">
	<stop  offset="0" style="stop-color:#F5DF51"/>
	<stop  offset="0.3872" style="stop-color:#F4DD51"/>
	<stop  offset="0.56" style="stop-color:#F2D651"/>
	<stop  offset="0.6902" style="stop-color:#EDC951"/>
	<stop  offset="0.799" style="stop-color:#E6B751"/>
	<stop  offset="0.8945" style="stop-color:#DEA051"/>
	<stop  offset="0.9793" style="stop-color:#D38351"/>
	<stop  offset="1" style="stop-color:#D07B51"/>
</radialGradient>
<path class="st10" d="M199.4,242.5c1.5-1.6,4.3-3.3,7.3-2.3c3,1,4.2,4.3,4.3,6.6c0.1,2.7-1.4,4.6-2,5.3c-0.7,0.8-2.9,3.6-5.9,3.3
	c-3-0.3-4.7-3.5-5.3-5.6C197.7,249.3,196.8,245.5,199.4,242.5z"/>
<radialGradient id="SVGID_3_" cx="224.3514" cy="201.9352" r="6.5581" gradientUnits="userSpaceOnUse">
	<stop  offset="0" style="stop-color:#F5DF51"/>
	<stop  offset="0.3872" style="stop-color:#F4DD51"/>
	<stop  offset="0.56" style="stop-color:#F2D651"/>
	<stop  offset="0.6902" style="stop-color:#EDC951"/>
	<stop  offset="0.799" style="stop-color:#E6B751"/>
	<stop  offset="0.8945" style="stop-color:#DEA051"/>
	<stop  offset="0.9793" style="stop-color:#D38351"/>
	<stop  offset="1" style="stop-color:#D07B51"/>
</radialGradient>
<path class="st11" d="M230.4,201.3c0,2.3,0.1,4.7-1.6,6.3c-1.9,1.8-4.6,1.4-4.9,1.3c-2.8-0.5-4.6-2.8-5.3-4.9c-0.1-0.5-1-3.6,1-6.3
	c1.7-2.3,4.3-2.6,4.9-2.6c0.7-0.1,3.1-0.3,4.6,1.3C230.4,197.6,230.4,199.2,230.4,201.3z"/>
<radialGradient id="SVGID_4_" cx="220.7022" cy="313.5529" r="5.5294" gradientUnits="userSpaceOnUse">
	<stop  offset="0" style="stop-color:#F5DF51"/>
	<stop  offset="0.3872" style="stop-color:#F4DD51"/>
	<stop  offset="0.56" style="stop-color:#F2D651"/>
	<stop  offset="0.6902" style="stop-color:#EDC951"/>
	<stop  offset="0.799" style="stop-color:#E6B751"/>
	<stop  offset="0.8945" style="stop-color:#DEA051"/>
	<stop  offset="0.9793" style="stop-color:#D38351"/>
	<stop  offset="1" style="stop-color:#D07B51"/>
</radialGradient>
<path class="st12" d="M223.5,308.4c2.6,1.4,2.6,4.7,2.6,4.9c0,2.1-1.1,4.3-3.3,5.3c-0.2,0.1-2.9,1.3-5.3-0.3c-2-1.4-2.3-3.7-2.3-4
	c-0.2-2.8,1.9-4.6,2.3-4.9C217.8,309.2,220.7,307,223.5,308.4z"/>
<radialGradient id="SVGID_5_" cx="275.2349" cy="175.1172" r="7.3221" gradientUnits="userSpaceOnUse">
	<stop  offset="0" style="stop-color:#F5DF51"/>
	<stop  offset="0.3872" style="stop-color:#F4DD51"/>
	<stop  offset="0.56" style="stop-color:#F2D651"/>
	<stop  offset="0.6902" style="stop-color:#EDC951"/>
	<stop  offset="0.799" style="stop-color:#E6B751"/>
	<stop  offset="0.8945" style="stop-color:#DEA051"/>
	<stop  offset="0.9793" style="stop-color:#D38351"/>
	<stop  offset="1" style="stop-color:#D07B51"/>
</radialGradient>
<path class="st13" d="M278.9,182.5c-1.7,1.3-4.6,1.6-6.3,0.3c-1.1-0.9-0.8-1.9-1.6-5.9c-1.1-5.5-2.3-6.7-1.3-8.2
	c0.9-1.5,3.1-2.1,4.6-2c3.4,0.3,5.1,3.9,5.6,4.9C281.4,174.7,282,180.1,278.9,182.5z"/>
<radialGradient id="SVGID_6_" cx="343.4424" cy="208.2103" r="5.8804" gradientUnits="userSpaceOnUse">
	<stop  offset="0" style="stop-color:#F5DF51"/>
	<stop  offset="0.3872" style="stop-color:#F4DD51"/>
	<stop  offset="0.56" style="stop-color:#F2D651"/>
	<stop  offset="0.6902" style="stop-color:#EDC951"/>
	<stop  offset="0.799" style="stop-color:#E6B751"/>
	<stop  offset="0.8945" style="stop-color:#DEA051"/>
	<stop  offset="0.9793" style="stop-color:#D38351"/>
	<stop  offset="1" style="stop-color:#D07B51"/>
</radialGradient>
<path class="st14" d="M346.8,214.1c-1.5,1.3-4,1-5.6,0c-2.6-1.6-2.6-4.9-2.6-5.6c0-2.3,1-6.2,4-6.9c1.6-0.4,3.5,0.1,4.6,1.3
	c1.3,1.4,1.2,3.1,1,6.3C348,211.9,347.9,213.2,346.8,214.1z"/>
<radialGradient id="SVGID_7_" cx="344.2237" cy="262.3818" r="6.2572" gradientUnits="userSpaceOnUse">
	<stop  offset="0" style="stop-color:#F5DF51"/>
	<stop  offset="0.3872" style="stop-color:#F4DD51"/>
	<stop  offset="0.56" style="stop-color:#F2D651"/>
	<stop  offset="0.6902" style="stop-color:#EDC951"/>
	<stop  offset="0.799" style="stop-color:#E6B751"/>
	<stop  offset="0.8945" style="stop-color:#DEA051"/>
	<stop  offset="0.9793" style="stop-color:#D38351"/>
	<stop  offset="1" style="stop-color:#D07B51"/>
</radialGradient>
<path class="st15" d="M344.5,268.9c-0.2,0-2.8,0.4-4.6-1.3c-2.6-2.4-2.1-7.8,1-10.2c2-1.5,5.4-2.2,7.6-0.3c2.4,2,1.8,5.7,1,7.6
	C349.3,265,347.9,268.4,344.5,268.9z"/>
<radialGradient id="SVGID_8_" cx="289.2106" cy="313.1169" r="5.8879" gradientUnits="userSpaceOnUse">
	<stop  offset="0" style="stop-color:#F5DF51"/>
	<stop  offset="0.3872" style="stop-color:#F4DD51"/>
	<stop  offset="0.56" style="stop-color:#F2D651"/>
	<stop  offset="0.6902" style="stop-color:#EDC951"/>
	<stop  offset="0.799" style="stop-color:#E6B751"/>
	<stop  offset="0.8945" style="stop-color:#DEA051"/>
	<stop  offset="0.9793" style="stop-color:#D38351"/>
	<stop  offset="1" style="stop-color:#D07B51"/>
</radialGradient>
<path class="st16" d="M289.8,319c-0.2,0-3.4,0.8-5.3-1.3c-2-2.2-0.6-5.6-0.3-6.3c0.8-1.8,2.9-4.6,5.9-4.3c2.2,0.2,4,2,4.6,4
	C295.8,314.4,293,318.2,289.8,319z"/>
</svg>
