<svg xmlns="http://www.w3.org/2000/svg" viewBox="0 0 419.75 368.11"><defs><style>.cls-1{fill:#fbdf21;}.cls-2{fill:#fd621f;}.cls-3{fill:#67fd1f;}.cls-4{fill:#fe1d25;}.cls-5{fill:#2874bd;}.cls-6{fill:#51d8e9;}.cls-7{fill:#6640cb;}.cls-8{fill:#2135bd;}.cls-9{fill:#fefefe;}</style></defs><title>faviconРесурс 1</title><g id="Слой_2" data-name="Слой 2"><g id="Слой_1-2" data-name="Слой 1"><path class="cls-1" d="M192.74,165.47S112.81,126.52,98,102.2c-6.09-10-8-35.13-5.29-46.5,2.53-10.46,15.43-29.15,23.89-35.79C127.83,11.07,156.17,2,170.39.36c15.25-1.75,46.16,3.23,60.93,7.38,15.05,4.24,46.95,13.9,56.91,25.95,11,13.32,21.35,50.65,16.24,67.14-6.56,21.18-45.72,50.18-65.93,59.3C228,164.88,192.74,165.47,192.74,165.47Z"/><path class="cls-2" d="M217.53,163.86S86.63,209.16,42.41,202c-10-1.63-29.4-12.18-34.87-20.72-7.48-11.66-9.36-41.73-5.8-55.12,4.12-15.53,24-43.57,37.52-52.16,14.39-9.11,50-13.06,67-12.3,16.28.73,49.6,7.87,62.8,17.42s29.32,39.26,36.08,54C208.6,140.67,217.53,163.86,217.53,163.86Z"/><path class="cls-3" d="M215,147.06c2.9-27.38,35.44-83.12,58.21-98.54,12.37-8.39,41.24-4.08,54.12-1.42,19,3.91,52.46,24.87,65.68,39,10.68,11.39,24.47,46.54,18.71,63.95-4.77,14.46-32.38,35.6-45.87,38.84-27.56,6.61-80.68-6.32-107-10.65-9.39-1.54-38.05-4.28-38.05-4.28S214.18,154.51,215,147.06Z"/><path class="cls-4" d="M206.52,196.48c-8.9,15.41-43.42,31.07-57.3,42.2C132.65,252,106.69,291.48,88.33,298c-13.61,4.83-45.8-1.25-56.81-10.61-15.12-12.85-21.47-59.5-14.4-78,10.12-26.52,69.12-53.59,97-59.09,23.71-4.68,95.46,15.15,95.46,15.15S210.42,189.72,206.52,196.48Z"/><path class="cls-5" d="M216.59,196.31c11.49,13.59,38.9,62.6,54.53,71.09,18.67,10.15,53.07,23.88,72.29,27,7.76,1.28,36-.24,46-6.2,11.82-7.08,26.95-33,29.54-46.52,3.18-16.64-3.44-49.36-13.69-66.35-14.66-24.31-77.53-40.47-105.92-40.94-24.16-.39-91.25,31.86-91.25,31.86S211.55,190.35,216.59,196.31Z"/><path class="cls-6" d="M193.37,191.71c-1.73,17.71-17.76,71.53-13,88.66,5.75,20.46,19.89,54.69,31,70.66,8.26,11.86,66,19.83,85.38,10.43,18.35-8.93,38.81-47.59,40.1-71.1,1.27-23-22-61.8-41.5-82.47-16.56-17.6-86.45-43.2-86.45-43.2S194.13,184,193.37,191.71Z"/><path class="cls-7" d="M208.85,164.14s21.81,62.36,22.31,84.11c.53,22.79-15.52,71.73-25,87.67-8.84,14.84-43.28,35.92-59.72,31.63-23.18-6.05-62.85-46.65-67.94-71.05-3.75-18,2.48-57.91,13.92-71.56C113.82,199.39,208.85,164.14,208.85,164.14Z"/><path class="cls-8" d="M275.36,133.7,157.73,201.6c-14.89-7.21-25.72-19.11-29.08-34.12-.15-.68-.29-1.36-.41-2l119.52-64.37h0C261.72,108.19,271.89,119.52,275.36,133.7Z"/><path class="cls-9" d="M247.76,101.07,128.24,165.44c-5.31-30.27,21.65-61.48,61.33-70.37C211,90.27,231.84,92.93,247.76,101.07Z"/><path class="cls-4" d="M214.64,207c-20.85,4.67-41.16,2.27-56.91-5.36l117.63-67.9c.07.28.14.56.2.85C282.48,165.45,255.21,197.86,214.64,207Z"/></g></g></svg>