<?xml version="1.0" encoding="utf-8"?>
<!-- Generator: Adobe Illustrator 22.0.1, SVG Export Plug-In . SVG Version: 6.00 Build 0)  -->
<svg version="1.1" id="Слой_1" xmlns="http://www.w3.org/2000/svg" xmlns:xlink="http://www.w3.org/1999/xlink" x="0px" y="0px"
	 viewBox="0 0 512 512" style="enable-background:new 0 0 512 512;" xml:space="preserve">
<style type="text/css">
	.st0{fill:#1D1D1B;}
	.st1{fill:none;stroke:#1D1D1B;stroke-width:12.6;stroke-linecap:round;stroke-linejoin:round;stroke-miterlimit:10;}
</style>
<g>
	<g>
		<path class="st0" d="M223.5,38.9c4.2-6.2,5.3-13.8,2.9-20.8c-0.9-2.8-3.6-4.4-6.5-3.7c-9.7,2.3-16.5,9.6-21.7,17.7
			c-6.2,9.9-10.9,20.9-15.4,31.6c-9.3,22-16.9,44.8-25.1,67.2c-15.3,41.8-34,85.1-69.6,113.7c-18.5,14.9-41,25-64.9,26
			c-6.7,0.3-6.8,10.8,0,10.5c43.2-1.9,79.8-29.3,104-63.6c27.4-38.8,40.4-85.2,56.9-129.2c4.8-12.9,10-25.6,16.1-37.9
			c4.9-10,10.5-23.2,22.4-26c-2.2-1.2-4.3-2.4-6.5-3.7c1.5,4.6,0.9,8.8-1.9,12.8C210.6,39.2,219.7,44.5,223.5,38.9L223.5,38.9z"/>
	</g>
</g>
<g>
	<g>
		<path class="st0" d="M115,96.7c22.5,45.7,42.3,92.6,59.4,140.6c2.3,6.3,12.4,3.6,10.1-2.8c-17.4-48.8-37.6-96.6-60.5-143.1
			C121.1,85.4,112.1,90.7,115,96.7L115,96.7z"/>
	</g>
</g>
<g>
	<g>
		<path class="st0" d="M213.8,123.3c-46.6,21.7-91.9,46-135.6,72.9c-5.7,3.5-0.5,12.6,5.3,9.1c43.8-26.9,89.1-51.2,135.6-72.9
			C225.2,129.5,219.9,120.4,213.8,123.3L213.8,123.3z"/>
	</g>
</g>
<g>
	<g>
		<path class="st0" d="M206,162.3c0.1,0,0.3-0.1,0.4-0.1c2.4-0.7,3.7-2.7,3.9-5.1c0.1-1.9-0.6-3.4-1.9-4.7c-1.2-1.2-3.4-2-5.1-1.4
			c-5.3,2.1-7.2,8.3-9.4,13.2c-2.6,5.6-4.8,11.3-6.7,17.2c-1.9,5.9-3.6,12.1-4.6,18.3c-0.8,4.8,0.4,10.1,5.9,11.1
			c4.9,0.9,10.1-3.2,13.8-5.9c4.2-3.1,8.2-6.5,11.7-10.5c7.4-8.3,12.8-17.9,16.1-28.5c1.8-5.7-6.6-9.2-9.6-4
			c-8.9,15.5-14,32.5-15.4,50.3c-0.5,6.7,10,6.7,10.5,0c1.2-15.9,6-31.2,14-45c-3.2-1.3-6.4-2.7-9.6-4
			c-4.5,14.4-13.9,27.1-26.6,35.2c-0.6,0.4-1.3,0.8-1.9,1.2c-2.3,0.8-1.8,1.7,1.5,2.7c0.6-0.2,1.3-6.1,1.5-6.8
			c1-4.1,2.1-8.1,3.4-12.1c2.7-8.1,5.8-17.3,10.8-24.2c-1,0.8-2.1,1.6-3.1,2.4c0.3-0.1,0.5-0.2,0.8-0.3c-1.7-0.5-3.4-0.9-5.1-1.4
			c0.1,0.1,0.3,0.3,0.4,0.4c-0.5-1.2-1-2.5-1.5-3.7c0,0.2,0,0.4,0,0.6c1.3-1.7,2.6-3.4,3.9-5.1c-0.1,0-0.3,0.1-0.4,0.1
			C196.8,154.1,199.5,164.2,206,162.3L206,162.3z"/>
	</g>
</g>
<g>
	<g>
		<path class="st0" d="M240.6,165.3c-7,16.7-13,33.7-18,51.1c-1.9,6.5,8.3,9.3,10.1,2.8c5-17.4,11-34.4,18-51.1
			C253.4,161.9,243.2,159.2,240.6,165.3L240.6,165.3z"/>
	</g>
</g>
<g>
	<g>
		<path class="st0" d="M250.2,170.5c1.4-2.6,3.1-4.8,5.8-6.1c1.4-0.7,2.7-0.7,4.1-1.3c1.3,0.4,1.7,0.2,1.2-0.5c-0.2-1-0.5-0.6-0.7,1
			c-3.5,5.7-6.4,10.7-11.9,14.9c-4.3,3.2-2,12.1,4,9.6c4.5-1.9,12-5.3,14,1.4c1.4,4.8-0.5,10.6-2.6,14.9
			c-2.2,4.7-6.1,10.9-10.8,13.5c-1.7,0.9-0.4,0.8-1.4,0.4c-1.1-0.4-2.1-1.5-3.2-2c-2.7-1.3-5.7-1.7-8.7-1.3
			c-6.6,0.8-6.7,11.4,0,10.5c4.8-0.6,6.7,3.6,11.1,4.1c4.3,0.5,7.9-2.7,11-5.3c6.7-5.8,11.7-13.8,14.1-22.3c2-6.9,2.3-15.4-2.4-21.4
			c-6.1-7.7-15.9-5.9-23.8-2.6c1.3,3.2,2.7,6.4,4,9.6c5.4-4,10-8.7,13.5-14.5c2.9-4.8,6.3-11.2,2.7-16.5c-3.4-4.9-10.6-4.5-15.6-2.9
			c-5.8,2-10.6,6.1-13.4,11.5C238.1,171.2,247.1,176.5,250.2,170.5L250.2,170.5z"/>
	</g>
</g>
<g>
	<g>
		<path class="st0" d="M297.2,183.6c0.1,0,0.3-0.1,0.4-0.1c2.4-0.7,3.7-2.7,3.9-5.1c0.1-1.9-0.6-3.4-1.9-4.7c-1.2-1.2-3.4-2-5.1-1.4
			c-5.3,2.1-7.2,8.3-9.4,13.2c-2.6,5.6-4.8,11.3-6.7,17.2c-1.9,5.9-3.6,12.1-4.6,18.3c-0.8,4.8,0.4,10.1,5.9,11.1
			c4.9,0.9,10.1-3.2,13.8-5.9c4.2-3.1,8.2-6.5,11.7-10.5c7.4-8.3,12.8-17.9,16.1-28.5c1.8-5.7-6.6-9.2-9.6-4
			c-8.9,15.5-14,32.5-15.4,50.3c-0.5,6.7,10,6.7,10.5,0c1.2-15.9,6-31.2,14-45c-3.2-1.3-6.4-2.7-9.6-4
			c-4.5,14.4-13.9,27.1-26.6,35.2c-0.6,0.4-1.3,0.8-1.9,1.2c-2.3,0.8-1.8,1.7,1.5,2.7c0.6-0.2,1.3-6.1,1.5-6.8
			c1-4.1,2.1-8.1,3.4-12.1c2.7-8.1,5.8-17.3,10.8-24.2c-1,0.8-2.1,1.6-3.1,2.4c0.3-0.1,0.5-0.2,0.8-0.3c-1.7-0.5-3.4-0.9-5.1-1.4
			c0.1,0.1,0.3,0.3,0.4,0.4c-0.5-1.2-1-2.5-1.5-3.7c0,0.2,0,0.4,0,0.6c1.3-1.7,2.6-3.4,3.9-5.1c-0.1,0-0.3,0.1-0.4,0.1
			C288,175.5,290.7,185.6,297.2,183.6L297.2,183.6z"/>
	</g>
</g>
<g>
	<g>
		<path class="st0" d="M267.7,255.4c4.2-6.2,5.3-13.8,2.9-20.8c-0.9-2.8-3.6-4.4-6.5-3.7c-9.7,2.3-16.5,9.6-21.7,17.7
			c-6.2,9.9-10.9,20.9-15.4,31.6c-9.3,22-16.9,44.8-25.1,67.2c-15.3,41.8-34,85.1-69.6,113.7c-18.5,14.9-41,25-64.9,26
			c-6.7,0.3-6.8,10.8,0,10.5c43.2-1.9,79.8-29.3,104-63.6c27.4-38.8,40.4-85.2,56.9-129.2c4.8-12.9,10-25.6,16.1-37.9
			c4.9-10,10.5-23.2,22.4-26c-2.2-1.2-4.3-2.4-6.5-3.7c1.5,4.6,0.9,8.8-1.9,12.8C254.8,255.7,263.9,261,267.7,255.4L267.7,255.4z"/>
	</g>
</g>
<g>
	<g>
		<path class="st0" d="M109.3,255.2c18.8,6.3,39.7,4.7,59.2,5.1c21.2,0.4,42.4,0.8,63.6,1.2c42.4,0.8,84.9,1.6,127.3,2.4
			c6.8,0.1,6.8-10.4,0-10.5c-41.8-0.8-83.5-1.5-125.3-2.3c-20.6-0.4-41.1-0.8-61.7-1.1c-19.8-0.4-41.4,1.5-60.4-4.8
			C105.7,242.9,102.9,253.1,109.3,255.2L109.3,255.2z"/>
	</g>
</g>
<g>
	<g>
		<path class="st0" d="M224.2,348.9c-13.4,24.7-25.6,49.9-36.7,75.7c-2.6,6.1,6.4,11.5,9.1,5.3c11.1-25.8,23.3-51.1,36.7-75.7
			C236.5,348.3,227.4,343,224.2,348.9L224.2,348.9z"/>
	</g>
</g>
<g>
	<g>
		<path class="st0" d="M223.5,370.8c4.6-4.7,10-9.2,16.1-11.9c6.1-2.6,6.6,4.3,5.8,8.8c-0.9,5.3-3.8,11.2-8.8,13.7
			c-4.1,2.1-9.9,1.4-12.5-2.7c-3.6-5.7-12.7-0.4-9.1,5.3c4.9,7.7,14.6,10.8,23.3,7.9c9.8-3.2,15.8-13.2,17.4-22.9
			c1.3-8-1.1-18.9-10.2-21.1c-10.6-2.6-22.8,8.6-29.5,15.4C211.4,368.2,218.8,375.6,223.5,370.8L223.5,370.8z"/>
	</g>
</g>
<g>
	<g>
		<path class="st0" d="M263.1,389.1c6.8-3.8,13.2-8.3,19.1-13.5c4.8-4.3,12-10,12.5-16.9c0.5-6.4-4.4-12-11.1-10.9
			c-5.9,1-11.7,5.8-15.4,10.3c-4.2,5-7.2,10.6-9.7,16.6c-2.3,5.5-5.6,12.4-4.3,18.5c1.5,6.9,7.6,8.5,13.8,7.4
			c8.9-1.6,17.8-3.5,26.8-5.2c6.6-1.3,3.8-11.4-2.8-10.1c-5.1,1-10.2,2-15.3,3c-2.9,0.6-5.7,1.1-8.6,1.7c-0.7,0.1-2.8,0.9-3.5,0.6
			c-1.2-0.5,0.1,0.8-0.2-0.6c-0.5-2.9,2.3-7.9,3.4-10.5c1.5-3.9,3.4-7.6,5.7-11.1c2.1-3.1,4.6-6.1,7.8-8.2c0.8-0.5,1.7-0.9,2.4-1.4
			c0.4-0.2,0.9-0.4,1.3-0.6c-0.2-0.2-0.5-0.3-0.7-0.5c-0.9,1.8-2,3.2-3.4,4.7c-6.8,7.1-14.5,13-23.1,17.8
			C251.9,383.3,257.2,392.4,263.1,389.1L263.1,389.1z"/>
	</g>
</g>
<g>
	<g>
		<path class="st0" d="M317.4,362.3c2.9-3,6.1-5.5,9.9-7.3c1.9-0.9,3.9-1.6,5.9-2.1c1-0.3,2-0.5,3-0.6c2,0,2.2-0.2,0.4-0.6
			c-0.5-1.2-1-2.5-1.5-3.7c0.2,2.8-4.8,7.7-6.6,9.7c-2.8,3.2-5.9,6.1-9.3,8.7c-4.5,3.4-2.1,11.1,4,9.6c4.1-1,12.8-3.4,13.7,2.9
			c0.8,5.4-4.1,12.3-6.9,16.5c-6.6,10.1-16.3,18.9-27.9,22.9c-2.8,0.9-5.7,1.7-8.6,2.1c-0.8,0.1-1.5,0.2-2.3,0.2
			c-0.2,1-0.2,1.1,0,0.5c0.2-1.2,2.1-1.9,3-2.5c6.3-3.8,12.9-7.3,19.5-10.6c13.7-7,27.9-13.3,42.3-18.8c6.3-2.4,3.5-12.5-2.8-10.1
			c-16.2,6.1-32,13.1-47.3,21.1c-6.9,3.6-15.2,7-21,12.2c-4.4,4-6.3,11.3-1.6,15.9c4.9,4.8,13.7,2.6,19.5,0.9
			c6.5-1.9,12.7-5.1,18.1-9.1c10.9-8,20.2-19.6,24.9-32.4c2.6-7.1,2.2-15.8-4.5-20.4c-6.1-4.2-14.1-3-20.9-1.3
			c1.3,3.2,2.7,6.4,4,9.6c5.6-4.3,10.6-9,14.9-14.6c3.3-4.3,9.4-11.7,4.3-17c-4.1-4.2-12.2-1.6-17,0.1c-6.4,2.4-12.1,6-16.8,11
			C305.3,359.7,312.7,367.1,317.4,362.3L317.4,362.3z"/>
	</g>
</g>
<g>
	<g>
		<path class="st0" d="M375.5,348.5c-7,16.7-13,33.7-18,51.1c-1.9,6.5,8.3,9.3,10.1,2.8c5-17.4,11-34.4,18-51.1
			C388.3,345.1,378.1,342.4,375.5,348.5L375.5,348.5z"/>
	</g>
</g>
<g>
	<g>
		<path class="st0" d="M385.1,353.7c1.4-2.6,3.1-4.8,5.8-6.1c1.4-0.7,2.7-0.7,4.1-1.3c1.3,0.4,1.7,0.2,1.2-0.5c-0.2-1-0.5-0.6-0.7,1
			c-3.5,5.7-6.4,10.7-11.9,14.9c-4.3,3.2-2,12.1,4,9.6c4.5-1.9,12-5.3,14,1.4c1.4,4.8-0.5,10.6-2.6,14.9
			c-2.2,4.7-6.1,10.9-10.8,13.5c-1.7,0.9-0.4,0.8-1.4,0.4c-1.1-0.4-2.1-1.5-3.2-2c-2.7-1.3-5.7-1.7-8.7-1.3
			c-6.6,0.8-6.7,11.4,0,10.5c4.8-0.6,6.7,3.6,11.1,4.1c4.3,0.5,7.9-2.7,11-5.3c6.7-5.8,11.7-13.8,14.1-22.3c2-6.9,2.3-15.4-2.4-21.4
			c-6.1-7.7-15.9-5.9-23.8-2.6c1.3,3.2,2.7,6.4,4,9.6c5.4-4,10-8.7,13.5-14.5c2.9-4.8,6.3-11.2,2.7-16.5c-3.4-4.9-10.6-4.5-15.6-2.9
			c-5.8,2-10.6,6.1-13.4,11.5C372.9,354.4,382,359.7,385.1,353.7L385.1,353.7z"/>
	</g>
</g>
<g>
	<g>
		<path class="st0" d="M433.6,397.2c-3.6-1.3-4-10.4-4.3-13.4c-0.6-5.5-0.6-11.3,1.1-16.5c2.6-8,12.9-17.1,21.5-11.2
			c7.8,5.4,7.5,18.3,4.7,26.2c-3.6,10.1-13.8,16.8-24.4,13c-6.4-2.3-9.1,7.9-2.8,10.1c15.7,5.7,31.6-4.7,37.1-19.6
			c4.9-13.4,2.8-33.3-11.7-40c-14.5-6.7-30.1,5-34.5,18.7c-2.7,8.3-2,17.2-0.6,25.7c1.3,7.3,3.6,14.5,11.2,17.2
			C437.2,409.6,440,399.5,433.6,397.2L433.6,397.2z"/>
	</g>
</g>
<path class="st1" d="M228.5,98.5c13.6-4.4,28.1-6.9,43.2-6.9c72.9,0,138.8,62.1,138.8,138.8c0,15.3-2.5,29.9-7,43.6"/>
<g>
	<g>
		<path class="st0" d="M271.7,74.4c4.1-17.9,7.4-35.9,10-54c0.5-3.1-4.4-4.5-4.8-1.3c-2.6,18.1-6,36.1-10,54
			C266.2,76.2,271,77.5,271.7,74.4L271.7,74.4z"/>
	</g>
</g>
<g>
	<g>
		<path class="st0" d="M376.6,107.5c12.1-18.3,24.9-36,38.6-53.1c2-2.5-1.5-6.1-3.5-3.5c-13.9,17.5-27.1,35.5-39.3,54.2
			C370.5,107.7,374.8,110.2,376.6,107.5L376.6,107.5z"/>
	</g>
</g>
<g>
	<g>
		<path class="st0" d="M435.8,230.1c19.1,1.3,33.4,16.8,52.2,19.7c3.1,0.5,4.5-4.3,1.3-4.8c-19.2-3-33.8-18.5-53.5-19.9
			C432.6,224.8,432.6,229.8,435.8,230.1L435.8,230.1z"/>
	</g>
</g>
<g>
	<g>
		<path class="st0" d="M418.5,158.2c17.4-5,34.1-12.1,49.8-21.3c2.8-1.6,0.3-5.9-2.5-4.3c-15.3,9-31.5,15.9-48.6,20.8
			C414.1,154.3,415.4,159.1,418.5,158.2L418.5,158.2z"/>
	</g>
</g>
<g>
	<g>
		<path class="st0" d="M331.5,67.9c6-15.3,10.8-31,14.3-47c0.7-3.1-4.1-4.5-4.8-1.3c-3.5,16-8.3,31.7-14.3,47
			C325.5,69.6,330.3,70.9,331.5,67.9L331.5,67.9z"/>
	</g>
</g>
<g>
	<g>
		<path class="st0" d="M703,35.5c3.2,0,3.2-5,0-5C699.8,30.5,699.8,35.5,703,35.5L703,35.5z"/>
	</g>
</g>
</svg>
